<?xml version="1.0" encoding="UTF-8" standalone="no"?>
<!-- Created with Inkscape (http://www.inkscape.org/) -->

<svg
   version="1.1"
   id="svg1"
   width="139"
   height="47"
   viewBox="0 0 139 47"
   xml:space="preserve"
   sodipodi:docname="delete-button.svg"
   inkscape:version="1.4 (86a8ad7, 2024-10-11)"
   inkscape:export-filename="update_button.svg"
   inkscape:export-xdpi="96"
   inkscape:export-ydpi="96"
   xmlns:inkscape="http://www.inkscape.org/namespaces/inkscape"
   xmlns:sodipodi="http://sodipodi.sourceforge.net/DTD/sodipodi-0.dtd"
   xmlns="http://www.w3.org/2000/svg"
   xmlns:svg="http://www.w3.org/2000/svg"><sodipodi:namedview
     id="namedview1"
     pagecolor="#ffffff"
     bordercolor="#000000"
     borderopacity="0.25"
     inkscape:showpageshadow="2"
     inkscape:pageopacity="0.0"
     inkscape:pagecheckerboard="0"
     inkscape:deskcolor="#d1d1d1"
     inkscape:zoom="7.0143884"
     inkscape:cx="69.642565"
     inkscape:cy="44.622565"
     inkscape:window-width="2048"
     inkscape:window-height="1082"
     inkscape:window-x="2041"
     inkscape:window-y="-6"
     inkscape:window-maximized="1"
     inkscape:current-layer="g1"
     showgrid="true"><inkscape:grid
       id="grid1"
       units="px"
       originx="0"
       originy="0"
       spacingx="1"
       spacingy="1"
       empcolor="#0099e5"
       empopacity="0.30196078"
       color="#0099e5"
       opacity="0.14901961"
       empspacing="5"
       enabled="true"
       visible="true" /></sodipodi:namedview><defs
     id="defs1" /><g
     id="g1"><path
       id="rect1"
       style="fill:#da292e;stroke-width:0.985479;fill-opacity:1"
       d="M 6.0178205,0 H 132.94095 c 3.324,0 6,2.676 6,6 v 35.063454 c 0,3.324 -2.676,6 -6,6 H 6.0178205 c -3.324,0 -5.99999999,-2.676 -5.99999999,-6 V 6 c 0,-3.324 2.67599999,-6 5.99999999,-6 z" /><path
       d="m 21.994076,14.867834 -0.314833,0.944504 h -3.474049 c -0.640526,0 -1.158012,0.517486 -1.158012,1.158018 0,0.640526 0.517486,1.158012 1.158012,1.158012 h 13.896184 c 0.640526,0 1.158012,-0.517486 1.158012,-1.158012 0,-0.640532 -0.517486,-1.158018 -1.158012,-1.158018 H 28.627329 L 28.312496,14.867834 C 28.15327,14.393769 27.711777,14.075316 27.212381,14.075316 h -4.11819 c -0.499396,0 -0.940889,0.318453 -1.100115,0.792518 z M 32.101378,19.86539 H 18.205194 l 0.763567,11.692332 c 0.0579,0.915558 0.817849,1.624842 1.733407,1.624842 h 8.902236 c 0.915558,0 1.675505,-0.709284 1.733407,-1.624842 z"
       id="path1-5"
       style="fill:#ffffff;fill-opacity:1;stroke-width:0.0361879" /><text
       xml:space="preserve"
       style="font-size:21.3333px;font-family:'Segoe UI';-inkscape-font-specification:'Segoe UI';text-align:start;writing-mode:lr-tb;direction:ltr;text-anchor:start;fill:#ffffff;fill-opacity:1"
       x="48.044106"
       y="30.793844"
       id="text1"><tspan
         sodipodi:role="line"
         id="tspan1"
         x="48.044106"
         y="30.793844">Delete</tspan></text></g></svg>
