<?xml version="1.0" encoding="UTF-8" standalone="no"?>
<!-- Created with Inkscape (http://www.inkscape.org/) -->

<svg
   version="1.1"
   id="svg1"
   width="180"
   height="47"
   viewBox="0 0 180 47"
   xml:space="preserve"
   sodipodi:docname="new-platform-button.svg"
   inkscape:version="1.4 (86a8ad7, 2024-10-11)"
   inkscape:export-filename="update_button.svg"
   inkscape:export-xdpi="96"
   inkscape:export-ydpi="96"
   xmlns:inkscape="http://www.inkscape.org/namespaces/inkscape"
   xmlns:sodipodi="http://sodipodi.sourceforge.net/DTD/sodipodi-0.dtd"
   xmlns="http://www.w3.org/2000/svg"
   xmlns:svg="http://www.w3.org/2000/svg"><sodipodi:namedview
     id="namedview1"
     pagecolor="#ffffff"
     bordercolor="#000000"
     borderopacity="0.25"
     inkscape:showpageshadow="2"
     inkscape:pageopacity="0.0"
     inkscape:pagecheckerboard="0"
     inkscape:deskcolor="#d1d1d1"
     inkscape:zoom="4.9599216"
     inkscape:cx="90.828048"
     inkscape:cy="27.016556"
     inkscape:window-width="2048"
     inkscape:window-height="1082"
     inkscape:window-x="2041"
     inkscape:window-y="-6"
     inkscape:window-maximized="1"
     inkscape:current-layer="g1"
     showgrid="true"><inkscape:grid
       id="grid1"
       units="px"
       originx="0"
       originy="0"
       spacingx="1"
       spacingy="1"
       empcolor="#0099e5"
       empopacity="0.30196078"
       color="#0099e5"
       opacity="0.14901961"
       empspacing="5"
       enabled="true"
       visible="true" /></sodipodi:namedview><defs
     id="defs1" /><g
     id="g1"><path
       id="rect1"
       style="fill:#2fb380;stroke-width:1.1208"
       d="M 7.7787944,0 H 171.95331 c 4.29958,0 7.76097,2.676 7.76097,6 v 35.063454 c 0,3.324 -3.46139,6 -7.76097,6 H 7.7787944 c -4.2995796,0 -7.76097389,-2.676 -7.76097389,-6 V 6 c 0,-3.324 3.46139429,-6 7.76097389,-6 z" /><path
       d="m 54.121579,32.661804 h -2.14583 L 44.288261,20.755573 q -0.291666,-0.447916 -0.479166,-0.937499 h -0.0625 q 0.08333,0.479166 0.08333,2.052081 V 32.661804 H 42.079931 V 17.724328 h 2.27083 l 7.479155,11.718731 q 0.468749,0.729166 0.604166,0.999999 h 0.04167 Q 52.371582,29.797225 52.371582,28.245145 V 17.724328 h 1.749997 z m 12.260397,-4.906242 h -7.531238 q 0.04167,1.781247 0.958332,2.749996 0.916665,0.968748 2.520829,0.968748 1.802081,0 3.312495,-1.187498 v 1.604164 q -1.406248,1.020832 -3.718744,1.020832 -2.260413,0 -3.552078,-1.447915 -1.291664,-1.458331 -1.291664,-4.093743 0,-2.48958 1.406248,-4.052077 1.416664,-1.572914 3.510411,-1.572914 2.093746,0 3.239578,1.354164 1.145831,1.354165 1.145831,3.760411 z m -1.749997,-1.447914 q -0.01042,-1.479165 -0.718749,-2.30208 -0.697915,-0.822915 -1.947913,-0.822915 -1.208332,0 -2.05208,0.864581 -0.843749,0.864582 -1.041665,2.260414 z m 17.770805,-4.312494 -3.197912,10.66665 h -1.77083 L 75.236129,25.0264 q -0.125,-0.4375 -0.166667,-0.989582 h -0.04167 q -0.03125,0.374999 -0.21875,0.968748 l -2.385413,7.656238 h -1.708331 l -3.229161,-10.66665 h 1.791664 l 2.208329,8.020821 q 0.104167,0.364583 0.145834,0.958332 h 0.08333 q 0.03125,-0.458333 0.1875,-0.979165 l 2.458329,-7.999988 h 1.562497 l 2.20833,8.041654 q 0.104167,0.385416 0.15625,0.958332 h 0.08333 q 0.02083,-0.406249 0.177083,-0.958332 l 2.166664,-8.041654 z m 9.572902,9.124986 h -0.04167 v 6.447906 h -1.70833 V 21.995154 h 1.70833 v 1.874997 h 0.04167 q 1.260415,-2.124996 3.687494,-2.124996 2.062497,0 3.218745,1.437498 1.156245,1.427081 1.156245,3.833327 0,2.677079 -1.302078,4.29166 -1.302081,1.604164 -3.562494,1.604164 -2.072914,0 -3.197912,-1.791664 z m -0.04167,-4.302077 v 1.489581 q 0,1.322915 0.854166,2.249997 0.864582,0.916665 2.187496,0.916665 1.552081,0 2.42708,-1.187498 0.885415,-1.187498 0.885415,-3.302078 0,-1.781247 -0.822915,-2.791662 -0.822916,-1.010415 -2.229164,-1.010415 -1.48958,0 -2.395829,1.041665 -0.906249,1.031248 -0.906249,2.593745 z m 12.541651,5.843741 h -1.70833 V 16.870162 h 1.70833 z m 11.09373,0 h -1.70833 V 30.99514 h -0.0417 q -1.11458,1.916664 -3.28124,1.916664 -1.59375,0 -2.5,-0.843749 -0.89583,-0.843749 -0.89583,-2.23958 0,-2.989578 3.52083,-3.479161 l 3.19791,-0.447916 q 0,-2.718745 -2.19792,-2.718745 -1.92708,0 -3.47916,1.312497 v -1.749997 q 1.57292,-0.999998 3.625,-0.999998 3.76041,0 3.76041,3.97916 z m -1.70833,-5.395825 -2.57291,0.354166 q -1.1875,0.166667 -1.79167,0.59375 -0.60416,0.416666 -0.60416,1.489581 0,0.781248 0.55208,1.281248 0.5625,0.489582 1.48958,0.489582 1.27083,0 2.09375,-0.885415 0.83333,-0.895832 0.83333,-2.260413 z m 9.87498,5.291659 q -0.60416,0.333333 -1.59375,0.333333 -2.80207,0 -2.80207,-3.124996 v -6.31249 h -1.83334 v -1.458331 h 1.83334 v -2.604162 l 1.70833,-0.552083 v 3.156245 h 2.68749 v 1.458331 h -2.68749 v 6.010408 q 0,1.072915 0.36458,1.531247 0.36458,0.458333 1.20833,0.458333 0.64583,0 1.11458,-0.354166 z m 7.55207,-14.187478 q -0.49999,-0.281249 -1.13541,-0.281249 -1.79166,0 -1.79166,2.260413 v 1.64583 h 2.49999 v 1.458331 h -2.49999 v 9.208319 h -1.69792 v -9.208319 h -1.82291 v -1.458331 h 1.82291 V 20.26599 q 0,-1.67708 0.96875,-2.645829 0.96875,-0.979165 2.41666,-0.979165 0.78125,0 1.23958,0.1875 z m 5.86458,14.541644 q -2.36458,0 -3.78125,-1.489581 -1.40625,-1.499998 -1.40625,-3.968744 0,-2.687496 1.46875,-4.19791 1.46875,-1.510414 3.96875,-1.510414 2.38541,0 3.71874,1.468747 1.34375,1.468748 1.34375,4.072911 0,2.552079 -1.44792,4.093743 -1.43749,1.531248 -3.86457,1.531248 z m 0.125,-9.729151 q -1.64583,0 -2.60417,1.124998 -0.95833,1.114581 -0.95833,3.083328 0,1.895831 0.96875,2.989579 0.96875,1.093748 2.59375,1.093748 1.65624,0 2.54166,-1.072915 0.89583,-1.072915 0.89583,-3.052078 0,-1.999997 -0.89583,-3.083329 -0.88542,-1.083331 -2.54166,-1.083331 z m 13.47915,0.541665 q -0.44792,-0.343749 -1.29167,-0.343749 -1.09375,0 -1.83333,1.031248 -0.72916,1.031249 -0.72916,2.812496 v 5.437491 h -1.70834 v -10.66665 h 1.70834 v 2.197914 h 0.0417 q 0.36458,-1.124999 1.11458,-1.749998 0.75,-0.635415 1.67708,-0.635415 0.66667,0 1.02084,0.145833 z m 16.99996,8.937486 h -1.70833 v -6.12499 q 0,-1.770831 -0.55208,-2.562496 -0.54167,-0.791665 -1.83333,-0.791665 -1.09375,0 -1.86458,0.999998 -0.76042,0.999998 -0.76042,2.395829 v 6.083324 h -1.70833 v -6.333323 q 0,-3.145828 -2.42708,-3.145828 -1.12499,0 -1.85416,0.947915 -0.72917,0.937498 -0.72917,2.447912 v 6.083324 H 152.611 v -10.66665 h 1.70833 v 1.687498 h 0.0417 q 1.13542,-1.937497 3.3125,-1.937497 1.09374,0 1.90624,0.614582 0.8125,0.604166 1.11458,1.593748 1.1875,-2.20833 3.54167,-2.20833 3.52082,0 3.52082,4.343743 z"
       id="text2"
       style="font-size:21.3333px;font-family:'Segoe UI';-inkscape-font-specification:'Segoe UI';fill:#ffffff"
       aria-label="New platform" /><path
       d="m 22.567125,15.759355 c 0,-0.711292 0.574656,-1.285948 1.285948,-1.285948 h 2.571896 c 0.711292,0 1.285948,0.574656 1.285948,1.285948 v 2.571896 c 0,0.711293 -0.574656,1.285949 -1.285948,1.285949 H 26.10348 v 2.571903 h 4.822311 c 1.599396,0 2.893385,1.293982 2.893385,2.893385 v 2.250407 h 0.321489 c 0.711292,0 1.285948,0.574663 1.285948,1.285948 v 2.571904 c 0,0.711285 -0.574656,1.285948 -1.285948,1.285948 h -2.571896 c -0.711292,0 -1.285955,-0.574663 -1.285955,-1.285948 v -2.571904 c 0,-0.711285 0.574663,-1.285948 1.285955,-1.285948 h 0.321482 v -2.250407 c 0,-0.534473 -0.429986,-0.964466 -0.96446,-0.964466 H 26.10348 v 3.214873 h 0.321489 c 0.711292,0 1.285948,0.574663 1.285948,1.285948 v 2.571904 c 0,0.711285 -0.574656,1.285948 -1.285948,1.285948 h -2.571896 c -0.711292,0 -1.285948,-0.574663 -1.285948,-1.285948 v -2.571904 c 0,-0.711285 0.574656,-1.285948 1.285948,-1.285948 h 0.321489 v -3.214873 h -4.822311 c -0.534473,0 -0.964459,0.429993 -0.964459,0.964466 v 2.250407 h 0.321481 c 0.711293,0 1.285949,0.574663 1.285949,1.285948 v 2.571904 c 0,0.711285 -0.574656,1.285948 -1.285949,1.285948 h -2.571896 c -0.711292,0 -1.285948,-0.574663 -1.285948,-1.285948 v -2.571904 c 0,-0.711285 0.574656,-1.285948 1.285948,-1.285948 h 0.321489 v -2.250407 c 0,-1.599403 1.293989,-2.893385 2.893385,-2.893385 h 4.822311 V 19.6172 h -0.321489 c -0.711292,0 -1.285948,-0.574656 -1.285948,-1.285949 z"
       id="path1"
       style="fill:#ffffff;fill-opacity:1;stroke-width:0.0401859" /></g></svg>
