<?xml version="1.0" encoding="UTF-8" standalone="no"?>
<!-- Created with Inkscape (http://www.inkscape.org/) -->

<svg
   version="1.1"
   id="svg1"
   width="139"
   height="47"
   viewBox="0 0 139 47"
   xml:space="preserve"
   sodipodi:docname="update-button.svg"
   inkscape:version="1.4 (86a8ad7, 2024-10-11)"
   inkscape:export-filename="update_button.svg"
   inkscape:export-xdpi="96"
   inkscape:export-ydpi="96"
   xmlns:inkscape="http://www.inkscape.org/namespaces/inkscape"
   xmlns:sodipodi="http://sodipodi.sourceforge.net/DTD/sodipodi-0.dtd"
   xmlns="http://www.w3.org/2000/svg"
   xmlns:svg="http://www.w3.org/2000/svg"><sodipodi:namedview
     id="namedview1"
     pagecolor="#ffffff"
     bordercolor="#000000"
     borderopacity="0.25"
     inkscape:showpageshadow="2"
     inkscape:pageopacity="0.0"
     inkscape:pagecheckerboard="0"
     inkscape:deskcolor="#d1d1d1"
     inkscape:zoom="7.0143884"
     inkscape:cx="62.656924"
     inkscape:cy="38.777436"
     inkscape:window-width="2048"
     inkscape:window-height="1082"
     inkscape:window-x="2041"
     inkscape:window-y="-6"
     inkscape:window-maximized="1"
     inkscape:current-layer="g1"
     showgrid="true"><inkscape:grid
       id="grid1"
       units="px"
       originx="0"
       originy="0"
       spacingx="1"
       spacingy="1"
       empcolor="#0099e5"
       empopacity="0.30196078"
       color="#0099e5"
       opacity="0.14901961"
       empspacing="5"
       enabled="true"
       visible="true" /></sodipodi:namedview><defs
     id="defs1" /><g
     id="g1"><path
       id="rect1"
       style="fill:#2fb380;stroke-width:0.985479"
       d="M 6.0178205,0 H 132.94095 c 3.324,0 6,2.676 6,6 v 35.063454 c 0,3.324 -2.676,6 -6,6 H 6.0178205 c -3.324,0 -5.99999999,-2.676 -5.99999999,-6 V 6 c 0,-3.324 2.67599999,-6 5.99999999,-6 z" /><path
       fill="currentColor"
       d="m 30.363696,15.778838 -1.707654,1.707653 4.586667,4.586662 1.707649,-1.707649 c 0.882053,-0.882053 0.882053,-2.310971 0,-3.193024 l -1.390109,-1.393642 c -0.882052,-0.882048 -2.310976,-0.882048 -3.193025,0 z m -2.505026,2.505026 -8.224242,8.227771 c -0.366934,0.366933 -0.635076,0.822071 -0.783261,1.319545 l -1.248981,4.244431 c -0.0882,0.299895 -0.007,0.620964 0.21169,0.839713 0.218748,0.218749 0.539813,0.299895 0.836184,0.21522 l 4.244427,-1.248986 c 0.497478,-0.148185 0.952616,-0.416328 1.319549,-0.783262 l 8.2313,-8.22777 z"
       id="path1-4"
       style="fill:#ffffff;fill-opacity:1;stroke-width:0.0352821" /><path
       style="font-size:21.3333px;font-family:'Segoe UI';-inkscape-font-specification:'Segoe UI';fill:#ffffff"
       d="m 58.042756,26.18 q 0,6.291656 -5.677074,6.291656 -5.437491,0 -5.437491,-6.052073 V 17.28418 h 1.749997 v 9.020819 q 0,4.593743 3.874994,4.593743 3.739577,0 3.739577,-4.437493 V 17.28418 h 1.749997 z m 5.249992,4.499993 h -0.04167 v 6.447906 H 61.542751 V 21.555007 h 1.708331 v 1.874997 h 0.04167 q 1.260415,-2.124997 3.687495,-2.124997 2.062496,0 3.218744,1.437498 1.156249,1.427081 1.156249,3.833327 0,2.677079 -1.302082,4.29166 -1.302081,1.604164 -3.562494,1.604164 -2.072913,0 -3.197912,-1.791663 z m -0.04167,-4.302077 v 1.489581 q 0,1.322915 0.854165,2.249996 0.864582,0.916666 2.187497,0.916666 1.552081,0 2.427079,-1.187498 0.885415,-1.187499 0.885415,-3.302079 0,-1.781247 -0.822915,-2.791662 -0.822915,-1.010415 -2.229163,-1.010415 -1.489581,0 -2.39583,1.041665 -0.906248,1.031248 -0.906248,2.593746 z M 83.18855,32.221657 H 81.48022 V 30.40916 h -0.04167 q -1.187498,2.062496 -3.666661,2.062496 -2.010413,0 -3.218745,-1.427081 -1.197914,-1.437497 -1.197914,-3.906244 0,-2.645829 1.333331,-4.239576 1.333331,-1.593748 3.552078,-1.593748 2.197913,0 3.197911,1.729164 h 0.04167 v -6.604156 h 1.70833 z m -1.70833,-4.822909 v -1.572914 q 0,-1.291665 -0.854166,-2.187497 -0.854165,-0.895832 -2.166663,-0.895832 -1.562497,0 -2.458329,1.145832 -0.895832,1.145831 -0.895832,3.166661 0,1.843747 0.854165,2.916662 0.864582,1.062499 2.312496,1.062499 1.427082,0 2.312497,-1.031249 0.895832,-1.031248 0.895832,-2.604162 z m 12.802062,4.822909 h -1.708331 v -1.666664 h -0.04167 q -1.114581,1.916663 -3.281244,1.916663 -1.593748,0 -2.499996,-0.843748 -0.895832,-0.843749 -0.895832,-2.23958 0,-2.989579 3.520827,-3.479161 l 3.197912,-0.447916 q 0,-2.718746 -2.197913,-2.718746 -1.92708,0 -3.479161,1.312498 v -1.749997 q 1.572914,-0.999999 3.624994,-0.999999 3.760411,0 3.760411,3.979161 z m -1.708331,-5.395825 -2.572913,0.354166 q -1.187498,0.166666 -1.791663,0.593749 -0.604166,0.416666 -0.604166,1.489581 0,0.781249 0.552082,1.281248 0.562499,0.489583 1.489581,0.489583 1.270832,0 2.093747,-0.885416 0.833332,-0.895832 0.833332,-2.260413 z m 9.874979,5.291658 q -0.60416,0.333333 -1.59374,0.333333 -2.802082,0 -2.802082,-3.124995 v -6.31249 h -1.83333 v -1.458331 h 1.83333 v -2.604163 l 1.708331,-0.552082 v 3.156245 h 2.687491 v 1.458331 h -2.687491 v 6.010407 q 0,1.072915 0.364581,1.531248 0.36458,0.458332 1.20833,0.458332 0.64584,0 1.11458,-0.354166 z m 10.85416,-4.802075 h -7.53124 q 0.0417,1.781247 0.95833,2.749995 0.91666,0.968749 2.52083,0.968749 1.80208,0 3.31249,-1.187498 v 1.604164 q -1.40624,1.020831 -3.71874,1.020831 -2.26041,0 -3.55208,-1.447914 -1.29166,-1.458331 -1.29166,-4.093744 0,-2.489579 1.40624,-4.052076 1.41667,-1.572915 3.51042,-1.572915 2.09374,0 3.23957,1.354165 1.14584,1.354164 1.14584,3.760411 z m -1.75,-1.447915 q -0.0104,-1.479164 -0.71875,-2.30208 -0.69792,-0.822915 -1.94791,-0.822915 -1.20834,0 -2.05208,0.864582 -0.84375,0.864582 -1.04167,2.260413 z"
       id="text1"
       aria-label="Update" /></g></svg>
