<?xml version="1.0" encoding="UTF-8" standalone="no"?>
<!-- Created with Inkscape (http://www.inkscape.org/) -->

<svg
   version="1.1"
   id="svg1"
   width="139"
   height="47"
   viewBox="0 0 139 47"
   xml:space="preserve"
   sodipodi:docname="upgrade-button.svg"
   inkscape:version="1.4 (86a8ad7, 2024-10-11)"
   xmlns:inkscape="http://www.inkscape.org/namespaces/inkscape"
   xmlns:sodipodi="http://sodipodi.sourceforge.net/DTD/sodipodi-0.dtd"
   xmlns="http://www.w3.org/2000/svg"
   xmlns:svg="http://www.w3.org/2000/svg"><sodipodi:namedview
     id="namedview1"
     pagecolor="#ffffff"
     bordercolor="#000000"
     borderopacity="0.25"
     inkscape:showpageshadow="2"
     inkscape:pageopacity="0.0"
     inkscape:pagecheckerboard="0"
     inkscape:deskcolor="#d1d1d1"
     inkscape:zoom="4.9599217"
     inkscape:cx="81.654515"
     inkscape:cy="33.871503"
     inkscape:window-width="2048"
     inkscape:window-height="1082"
     inkscape:window-x="2041"
     inkscape:window-y="-6"
     inkscape:window-maximized="1"
     inkscape:current-layer="svg1" /><defs
     id="defs1" /><g
     id="g1"><path
       id="rect1"
       style="fill:#efa31d;stroke-width:0.872092"
       d="M 0.11796609,0.21589352 H 139.07904 V 46.977414 H 0.11796609 Z" /><path
       fill="currentColor"
       d="m 25.79118,14.150516 c 0.168764,0 0.337525,0.03669 0.491614,0.106394 l 6.908263,2.931335 c 0.807124,0.341192 1.408799,1.137314 1.405133,2.098527 -0.01835,3.639404 -1.515195,10.29819 -7.83646,13.324913 -0.612681,0.2935 -1.324419,0.2935 -1.937101,0 -6.321264,-3.026723 -7.818116,-9.685509 -7.836458,-13.324913 -0.0036,-0.961213 0.598008,-1.757335 1.405132,-2.098527 l 6.911934,-2.931335 c 0.150418,-0.0697 0.319182,-0.106394 0.487943,-0.106394 z m 0,2.450729 v 13.867886 c 5.06288,-2.450724 6.423988,-7.876813 6.457008,-11.130995 z"
       id="path1"
       style="fill:#ffffff;fill-opacity:1;stroke-width:0.0366875" /><path
       style="font-size:21.3333px;font-family:'Segoe UI';-inkscape-font-specification:'Segoe UI';fill:#ffffff"
       d="m 58.042756,26.18 q 0,6.291656 -5.677074,6.291656 -5.437491,0 -5.437491,-6.052073 V 17.28418 h 1.749997 v 9.020819 q 0,4.593743 3.874994,4.593743 3.739577,0 3.739577,-4.437493 V 17.28418 h 1.749997 z m 5.249992,4.499993 h -0.04167 v 6.447906 H 61.542751 V 21.555007 h 1.708331 v 1.874997 h 0.04167 q 1.260415,-2.124997 3.687495,-2.124997 2.062496,0 3.218744,1.437498 1.156249,1.427081 1.156249,3.833327 0,2.677079 -1.302082,4.29166 -1.302081,1.604164 -3.562494,1.604164 -2.072913,0 -3.197912,-1.791663 z m -0.04167,-4.302077 v 1.489581 q 0,1.322915 0.854165,2.249996 0.864582,0.916666 2.187497,0.916666 1.552081,0 2.427079,-1.187498 0.885415,-1.187499 0.885415,-3.302079 0,-1.781247 -0.822915,-2.791662 -0.822915,-1.010415 -2.229163,-1.010415 -1.489581,0 -2.39583,1.041665 -0.906248,1.031248 -0.906248,2.593746 z m 19.937468,4.989575 q 0,5.874991 -5.624991,5.874991 -1.979163,0 -3.458328,-0.749999 v -1.70833 q 1.802081,0.999998 3.437495,0.999998 3.937494,0 3.937494,-4.187493 v -1.166665 h -0.04167 q -1.218748,2.041663 -3.666661,2.041663 -1.98958,0 -3.208328,-1.416664 -1.208331,-1.427081 -1.208331,-3.822911 0,-2.718745 1.302081,-4.322909 1.312498,-1.604165 3.583328,-1.604165 2.156246,0 3.197911,1.729164 h 0.04167 v -1.479164 h 1.70833 z m -1.70833,-3.968743 v -1.572914 q 0,-1.270832 -0.864582,-2.17708 -0.854166,-0.906249 -2.135414,-0.906249 -1.58333,0 -2.479162,1.156248 -0.895832,1.145832 -0.895832,3.218745 0,1.781247 0.854165,2.854162 0.864582,1.062499 2.281247,1.062499 1.437497,0 2.333329,-1.020832 0.906249,-1.020832 0.906249,-2.614579 z m 10.729148,-4.114577 q -0.447916,-0.34375 -1.291664,-0.34375 -1.093749,0 -1.833331,1.031249 -0.729165,1.031248 -0.729165,2.812495 v 5.437492 h -1.708331 v -10.66665 h 1.708331 v 2.197913 h 0.04167 q 0.364583,-1.124998 1.114582,-1.749997 0.749999,-0.635416 1.677081,-0.635416 0.666665,0 1.020831,0.145833 z m 9.489576,8.937486 h -1.708336 v -1.666664 h -0.04167 q -1.114582,1.916663 -3.281245,1.916663 -1.593747,0 -2.499996,-0.843748 -0.895832,-0.843749 -0.895832,-2.23958 0,-2.989579 3.520828,-3.479161 l 3.197912,-0.447916 q 0,-2.718746 -2.197914,-2.718746 -1.92708,0 -3.479161,1.312498 v -1.749997 q 1.572914,-0.999999 3.624994,-0.999999 3.76041,0 3.76041,3.979161 z m -1.708336,-5.395825 -2.572913,0.354166 q -1.187498,0.166666 -1.791664,0.593749 -0.604166,0.416666 -0.604166,1.489581 0,0.781249 0.552083,1.281248 0.562499,0.489583 1.489581,0.489583 1.270831,0 2.093747,-0.885416 0.833332,-0.895832 0.833332,-2.260413 z m 14.031226,5.395825 H 112.3135 V 30.40916 h -0.0417 q -1.1875,2.062496 -3.66666,2.062496 -2.01042,0 -3.21875,-1.427081 -1.19791,-1.437497 -1.19791,-3.906244 0,-2.645829 1.33333,-4.239576 1.33333,-1.593748 3.55208,-1.593748 2.19791,0 3.19791,1.729164 h 0.0417 v -6.604156 h 1.70833 z m -1.70833,-4.822909 v -1.572914 q 0,-1.291665 -0.85416,-2.187497 -0.85417,-0.895832 -2.16666,-0.895832 -1.5625,0 -2.45833,1.145832 -0.89584,1.145831 -0.89584,3.166661 0,1.843747 0.85417,2.916662 0.86458,1.062499 2.3125,1.062499 1.42708,0 2.31249,-1.031249 0.89583,-1.031248 0.89583,-2.604162 z m 13.73956,-0.08333 h -7.53124 q 0.0417,1.781247 0.95834,2.749995 0.91666,0.968749 2.52083,0.968749 1.80208,0 3.31249,-1.187498 v 1.604164 q -1.40625,1.020831 -3.71874,1.020831 -2.26042,0 -3.55208,-1.447914 -1.29167,-1.458331 -1.29167,-4.093744 0,-2.489579 1.40625,-4.052076 1.41667,-1.572915 3.51041,-1.572915 2.09375,0 3.23958,1.354165 1.14583,1.354164 1.14583,3.760411 z M 124.30307,25.8675 q -0.0104,-1.479164 -0.71875,-2.30208 -0.69792,-0.822915 -1.94792,-0.822915 -1.20833,0 -2.05208,0.864582 -0.84375,0.864582 -1.04166,2.260413 z"
       id="text1"
       aria-label="Upgrade" /></g></svg>
