<?xml version="1.0" encoding="UTF-8" standalone="no"?>
<!-- Created with Inkscape (http://www.inkscape.org/) -->

<svg
   version="1.1"
   id="svg1"
   width="139"
   height="47"
   viewBox="0 0 139 47"
   xml:space="preserve"
   sodipodi:docname="upgrade-button.svg"
   inkscape:version="1.4 (86a8ad7, 2024-10-11)"
   inkscape:export-filename="update_button.svg"
   inkscape:export-xdpi="96"
   inkscape:export-ydpi="96"
   xmlns:inkscape="http://www.inkscape.org/namespaces/inkscape"
   xmlns:sodipodi="http://sodipodi.sourceforge.net/DTD/sodipodi-0.dtd"
   xmlns="http://www.w3.org/2000/svg"
   xmlns:svg="http://www.w3.org/2000/svg"><sodipodi:namedview
     id="namedview1"
     pagecolor="#ffffff"
     bordercolor="#000000"
     borderopacity="0.25"
     inkscape:showpageshadow="2"
     inkscape:pageopacity="0.0"
     inkscape:pagecheckerboard="0"
     inkscape:deskcolor="#d1d1d1"
     inkscape:zoom="7.0143884"
     inkscape:cx="62.656924"
     inkscape:cy="38.777436"
     inkscape:window-width="2048"
     inkscape:window-height="1082"
     inkscape:window-x="2041"
     inkscape:window-y="-6"
     inkscape:window-maximized="1"
     inkscape:current-layer="g1"
     showgrid="true"><inkscape:grid
       id="grid1"
       units="px"
       originx="0"
       originy="0"
       spacingx="1"
       spacingy="1"
       empcolor="#0099e5"
       empopacity="0.30196078"
       color="#0099e5"
       opacity="0.14901961"
       empspacing="5"
       enabled="true"
       visible="true" /></sodipodi:namedview><defs
     id="defs1" /><g
     id="g1"><path
       id="rect1"
       style="fill:#f4bd61;stroke-width:0.985479;fill-opacity:1"
       d="M 6.0178205,0 H 132.94095 c 3.324,0 6,2.676 6,6 v 35.063454 c 0,3.324 -2.676,6 -6,6 H 6.0178205 c -3.324,0 -5.99999999,-2.676 -5.99999999,-6 V 6 c 0,-3.324 2.67599999,-6 5.99999999,-6 z" /><path
       fill="currentColor"
       d="m 25.63887,14.086153 c 0.168764,0 0.337525,0.03669 0.491614,0.106394 l 6.908263,2.931335 c 0.807124,0.341192 1.408799,1.137314 1.405133,2.098527 -0.01835,3.639404 -1.515195,10.29819 -7.83646,13.324913 -0.612681,0.2935 -1.324419,0.2935 -1.937101,0 -6.321264,-3.026723 -7.818116,-9.685509 -7.836458,-13.324913 -0.0036,-0.961213 0.598008,-1.757335 1.405132,-2.098527 l 6.911934,-2.931335 c 0.150418,-0.0697 0.319182,-0.106394 0.487943,-0.106394 z m 0,2.450729 v 13.867886 c 5.06288,-2.450724 6.423988,-7.876813 6.457008,-11.130995 z"
       id="path1"
       style="fill:#ffffff;fill-opacity:1;stroke-width:0.0366875" /><path
       style="font-size:21.3333px;font-family:'Segoe UI';-inkscape-font-specification:'Segoe UI';fill:#ffffff"
       d="m 57.890445,26.115637 q 0,6.291656 -5.67707,6.291656 -5.43749,0 -5.43749,-6.052073 v -9.135403 h 1.74999 v 9.020819 q 0,4.593743 3.875,4.593743 3.73957,0 3.73957,-4.437493 v -9.177069 h 1.75 z m 5.24999,4.499993 h -0.0417 v 6.447906 h -1.70829 V 21.490644 h 1.70833 v 1.874997 h 0.0417 q 1.26041,-2.124997 3.68749,-2.124997 2.0625,0 3.21875,1.437498 1.15624,1.427081 1.15624,3.833327 0,2.677079 -1.30208,4.29166 -1.30208,1.604164 -3.56249,1.604164 -2.07291,0 -3.19791,-1.791663 z m -0.0417,-4.302077 v 1.489581 q 0,1.322915 0.85417,2.249996 0.86458,0.916666 2.18749,0.916666 1.55209,0 2.42708,-1.187498 0.88542,-1.187499 0.88542,-3.302079 0,-1.781247 -0.82292,-2.791662 -0.82291,-1.010415 -2.22916,-1.010415 -1.48958,0 -2.39583,1.041665 -0.90625,1.031248 -0.90625,2.593746 z m 19.93747,4.989575 q 0,5.874991 -5.62499,5.874991 -1.97916,0 -3.45833,-0.749999 v -1.70833 q 1.80208,0.999998 3.4375,0.999998 3.93749,0 3.93749,-4.187493 V 30.36563 h -0.0417 q -1.21875,2.041663 -3.66666,2.041663 -1.98958,0 -3.20833,-1.416664 -1.20833,-1.427081 -1.20833,-3.822911 0,-2.718745 1.30208,-4.322909 1.3125,-1.604165 3.58333,-1.604165 2.15625,0 3.19791,1.729164 h 0.0417 v -1.479164 h 1.70833 z m -1.70833,-3.968743 v -1.572914 q 0,-1.270832 -0.86458,-2.17708 -0.85417,-0.906249 -2.13542,-0.906249 -1.58333,0 -2.47916,1.156248 -0.89583,1.145832 -0.89583,3.218745 0,1.781247 0.85417,2.854162 0.86458,1.062499 2.28124,1.062499 1.4375,0 2.33333,-1.020832 0.90625,-1.020832 0.90625,-2.614579 z m 10.72915,-4.114577 q -0.44792,-0.34375 -1.29167,-0.34375 -1.09374,0 -1.83333,1.031249 -0.72916,1.031248 -0.72916,2.812495 v 5.437492 h -1.70833 v -10.66665 h 1.70833 v 2.197913 h 0.0417 q 0.36458,-1.124998 1.11458,-1.749997 0.75,-0.635416 1.67708,-0.635416 0.66667,0 1.02083,0.145833 z m 9.489575,8.937486 H 99.838265 V 30.49063 h -0.0417 q -1.11458,1.916663 -3.28125,1.916663 -1.59374,0 -2.49999,-0.843748 -0.89583,-0.843749 -0.89583,-2.23958 0,-2.989579 3.52082,-3.479161 l 3.19792,-0.447916 q 0,-2.718746 -2.19792,-2.718746 -1.92708,0 -3.47916,1.312498 v -1.749997 q 1.57291,-0.999999 3.62499,-0.999999 3.760415,0 3.760415,3.979161 z m -1.708335,-5.395825 -2.57291,0.354166 q -1.1875,0.166666 -1.79167,0.593749 -0.60416,0.416666 -0.60416,1.489581 0,0.781249 0.55208,1.281248 0.5625,0.489583 1.48958,0.489583 1.27083,0 2.09375,-0.885416 0.83333,-0.895832 0.83333,-2.260413 z m 14.031225,5.395825 h -1.70833 v -1.812497 h -0.0417 q -1.1875,2.062496 -3.66666,2.062496 -2.01042,0 -3.21875,-1.427081 -1.1979,-1.437497 -1.1979,-3.906244 0,-2.645829 1.33333,-4.239576 1.33332,-1.593748 3.55207,-1.593748 2.19792,0 3.19792,1.729164 h 0.0417 v -6.604156 h 1.70833 z m -1.70833,-4.822909 v -1.572914 q 0,-1.291665 -0.85416,-2.187497 -0.85417,-0.895832 -2.16666,-0.895832 -1.5625,0 -2.45833,1.145832 -0.89584,1.145831 -0.89584,3.166661 0,1.843747 0.85417,2.916662 0.86458,1.062499 2.3125,1.062499 1.42708,0 2.31249,-1.031249 0.89583,-1.031248 0.89583,-2.604162 z m 13.73956,-0.08333 h -7.53124 q 0.0417,1.781247 0.95834,2.749995 0.91666,0.968749 2.52083,0.968749 1.80208,0 3.31249,-1.187498 v 1.604164 q -1.40625,1.020831 -3.71874,1.020831 -2.26042,0 -3.55208,-1.447914 -1.29167,-1.458331 -1.29167,-4.093744 0,-2.489579 1.40625,-4.052076 1.41667,-1.572915 3.51041,-1.572915 2.09375,0 3.23958,1.354165 1.14583,1.354164 1.14583,3.760411 z m -1.74999,-1.447918 q -0.0104,-1.479164 -0.71875,-2.30208 -0.69792,-0.822915 -1.94792,-0.822915 -1.20833,0 -2.05208,0.864582 -0.84375,0.864582 -1.04165,2.260413 z"
       id="text1-8"
       aria-label="Upgrade" /></g></svg>
