<?xml version="1.0" encoding="UTF-8" standalone="no"?>
<!-- Created with Inkscape (http://www.inkscape.org/) -->

<svg
   version="1.1"
   id="svg2"
   width="632.48798"
   height="683.67383"
   viewBox="0 0 632.48798 683.67383"
   xmlns="http://www.w3.org/2000/svg"
   xmlns:svg="http://www.w3.org/2000/svg">
  <defs
     id="defs6" />
  <g
     id="g8"
     transform="translate(-25.195865,3.2930382)">
    <path
       style="fill:#040404;stroke:none;stroke-width:1.33333"
       d="m 246.10311,188.81444 -51.96667,74.66667 -22.94534,30.62933 -34.42134,1.37067 c -5.5272,-37.42667 -51.301596,-53.152 -81.333336,-33.19334 -17.27213,11.47867 -23.1636,29.40934 -22.64706,49.19334 1.5428,59.1 96.071056,63.78133 103.980396,5.33333 h 20.00001 c -32.01175,47.05867 -65.033476,93.54667 -97.899206,140.00001 -8.46667,11.96666 -16.86134,23.96266 -25.22627,36 -3.21227,4.62266 -8.8576,9.90533 -8.42493,16 0.50173,7.06933 7.6348,10.848 12.88373,14.25466 12.75587,8.28134 25.41653,16.36001 38.66667,23.84667 58.282656,32.92534 124.260006,54.832 190.666676,63.232 v 16 h -44 c -2.576,-12.628 -17.94,-13.232 -20,0 -5.028,0 -11.34934,-0.932 -15.92134,1.572 -6.98533,3.82534 -6.98533,14.36401 0,18.18934 4.57334,2.504 10.89334,1.572 15.92134,1.572 2.06,13.232 17.424,12.628 20,0 h 44 c 0,8.736 -3.94667,23.95733 4.17733,29.86267 7.168,5.20933 23.308,2.13733 31.82267,2.13733 h 77.33333 c 8.40533,0 23.33733,2.83733 30.47466,-2.32267 7.76667,-5.616 4.192,-21.292 4.192,-29.67733 6.4,0 16.7,-1.95067 22.38667,1.37067 12.31334,7.19066 14.71334,20.28133 32.28,19.78933 32.6,-0.912 43.02134,-48.44534 12,-60.98667 -11.28533,-4.56267 -25.332,-2.92267 -34.42,5.59867 -3.61066,3.38666 -5.53466,8.99866 -9.86,11.524 -5.68667,3.32133 -15.98667,1.37066 -22.38667,1.37066 v -16 c 66.32401,-8.38933 132.60401,-30.22533 190.66668,-63.43866 13.17066,-7.53334 26.04933,-15.23734 38.66667,-23.67201 5.13466,-3.43333 12.36,-7.28266 12.88533,-14.224 0.52,-6.88266 -6.152,-13.41466 -9.764,-18.66533 -10.44533,-15.18533 -21.04267,-30.288 -31.68667,-45.33333 -40.07867,-56.64801 -80.624,-113.14534 -119.43467,-170.66668 h 61.33334 c 10.69466,0 22.40666,1.464 31.99466,-4.3 25.59467,-15.38266 23.86,-68.748 -5.328,-79.18267 -11.25466,-4.024 -25.53466,-1.85066 -37.33333,-1.85066 h -72 c -9.912,0 -32.89467,4.232 -40.33467,-3.09067 -11.38534,-11.20667 -19.94,-27.78133 -29.032,-40.90933 -3.31467,-4.78801 -10.14934,-11.33334 -10.79734,-17.33334 -0.52933,-4.906 4.948,-9.5936 7.47067,-13.33333 5.492,-8.14454 9.26133,-17.061467 11.34,-26.666667 9.52933,-44.026535 -22.10933,-86.1302163 -66.64667,-90.4403113 -48.40532,-4.684279 -87.69999,40.6976423 -79.38132,87.7736443 1.76666,10.003067 5.372,19.558264 11.04666,27.999994 2.732,4.06307 9.084,9.4004 8.75467,14.66667 -0.54933,8.78933 -19.57867,34.47867 -27.21067,38.62934 -5.94266,3.232 -31.35867,3.96666 -36.45867,-0.76667 -8.17733,-7.59333 -9.94666,-23.28667 -18.65466,-32.144 -15.592,-15.85667 -38.00667,-21.12174 -59.42935,-17.2896 -64.750926,11.58266 -64.260666,108.01227 -2.66667,123.8896 22.29202,5.74667 47.42802,-0.94933 63.21202,-17.88 7.17066,-7.69067 10.728,-26.70667 18.52533,-31.73467 5.084,-3.27866 15.08933,-1.37066 20.92934,-1.37066 m 88,-170.26654 c 68.78399,-9.9114403 82.45332,96.8764 13.33332,105.88067 -67.51866,8.7952 -80.93732,-96.139203 -13.33332,-105.88067 m 0,21.638934 c -40.60267,9.320667 -25.65467,71.893736 14.66666,62.588536 40.444,-9.3336 25.55466,-71.821336 -14.66666,-62.588536 m 6.66666,21.338535 c 12.66266,-0.854 13.92666,19.058667 1.32801,19.911467 -12.85601,0.8704 -14.14001,-19.047467 -1.32801,-19.911467 m -188,74.390401 c 54.084,-9.032 68.83867,74.512 14.66667,84.27867 -54.19762,9.772 -69.207476,-75.172 -14.66667,-84.27867 m 221.33333,3.56533 v 49.33334 c -11.99067,0 -25.49333,-1.90134 -35.99866,5.13733 -23.364,15.656 -23.56533,57.456 -1.32933,74.11867 10.72132,8.03467 24.74132,6.07733 37.32799,6.07733 v 177.33334 l -31.99999,-6.64133 -33.33334,6.64133 V 139.4811 l 33.33334,6.64134 31.99999,-6.64134 m 21.33333,26.66667 14.66667,22.66667 h -16 l 1.33333,-22.66667 m -106.66666,1.33333 -0.86933,22.66667 -15.504,24 -32.772,46.66667 -128.18802,182.66667 h -1.33333 c -2.8848,-2.252 -8.48573,-5.14933 -8.1584,-9.45733 0.4672,-6.14934 8.15133,-13.67867 11.59253,-18.54267 9.7132,-13.72933 19.2952,-27.556 28.9392,-41.33333 32.99068,-47.13067 65.83335,-94.36801 99.06135,-141.33334 14.344,-20.276 28.128,-49.544 47.232,-65.33334 m 206.66667,42.66667 c -5.21067,14.19067 -5.21067,28.476 0,42.66667 H 383.43643 c -10.26933,0 -31.54666,4.248 -38.02265,-5.47867 -5.89734,-8.85867 -6.59334,-32.812 6.14665,-36.60933 13.044,-3.888 31.60934,-0.57867 45.20934,-0.57867 h 98.66667 m 53.33333,0 c -5.30933,14.244 -5.30933,28.42267 0,42.66667 -7.96133,0 -21.912,2.68 -28.89467,-1.572 -10.69733,-6.51467 -10.69733,-33.008 0,-39.52267 6.98267,-4.252 20.93334,-1.572 28.89467,-1.572 m 26.78667,1.00267 c 14.96667,-0.37867 14.96667,41.04 0,40.66133 -13.916,-0.35066 -13.916,-40.31067 0,-40.66133 m -286.78667,17.664 v 204 c 0,10.03067 2.42934,23.81334 -0.97066,33.33334 -2.44,6.83333 -8.45734,12.316 -11.94534,18.66667 -2.35066,4.28133 -4.13733,14.43066 -8.82133,16.50933 -8.32,3.692 -27.104,-4.19067 -35.596,-6.34133 -35.912,-9.09334 -67.45467,-25.396 -101.33335,-39.50134 7.752,-23.38133 30.91868,-46.37333 44.87868,-66.66667 24.292,-35.31333 49.35333,-70.096 73.75467,-105.33333 11.94133,-17.24267 23.75733,-41.416 40.03333,-54.66667 M 80.769764,274.54911 c 39.695596,-5.80134 50.354926,56.204 10.66666,63.16 -41.562,7.28533 -52.73293,-57.012 -10.66666,-63.16 M 394.1031,274.14777 c 8.76667,0 26.45467,-3.40133 33.976,1.37067 10.64534,6.752 18.928,25.73333 26.212,35.96267 21.39467,30.04267 42.288,60.452 63.43867,90.66667 8.71333,12.448 17.55067,24.81333 26.16134,37.33333 2.41866,3.51734 8.776,9.66934 7.13733,14.38267 -2.29333,6.596 -18.96667,11.804 -24.92534,14.53867 -25.696,11.79733 -52.556,21.14 -80,27.91333 -6.816,1.68133 -27.96933,9.76533 -32.80933,2.74 -5.49867,-7.98267 -16.59867,-25.13867 -18.772,-34.24133 -4.584,-19.19734 -0.41867,-44.24001 -0.41867,-64.00001 V 274.14777 m 189.33334,160.00001 v 1.33333 l -12,8 -78.29334,-112 -39.04,-57.33334 c 4.69867,0 11.18667,-1.13333 15.56534,0.804 11.32533,5.01067 22.10133,29.16 29.20266,39.196 27.94667,39.50134 53.18801,83.18534 84.56534,120.00001 m 12,18.66667 18.66667,25.33333 v 1.33333 c -59.452,43.224 -127.56267,60.14534 -197.33334,77.33334 -1.868,-6.32 -4.59334,-27.208 0.804,-32.08267 4.22266,-3.812 13.808,-3.89067 19.196,-4.98533 14.38267,-2.92267 28.74,-6.75067 42.66667,-11.376 41.848,-13.89867 77.75867,-34.26534 116,-55.556 m -329.33333,104 c -52.81867,-13.012 -101.54801,-25.104 -150.66669,-49.66267 -11.40306,-5.70133 -22.438396,-11.98667 -33.333326,-18.608 -3.412,-2.07333 -10.00267,-4.89067 -10.82413,-9.308 -1.3172,-7.084 11.2128,-19.236 14.82413,-25.088 13.51,2.612 26.411326,14.66267 38.666666,20.98933 27.09201,13.98267 54.83468,26.008 84.00001,34.97734 12.692,3.904 25.64933,7.28 38.66667,9.9 5.07333,1.02 13.88,1.12133 17.86267,4.71733 5.39733,4.87467 2.672,25.76267 0.804,32.08267 m 129.33332,69.33333 H 287.43644 v -81.33333 c 0,-15.60667 -1.22267,-33.524 5.56533,-48 17.668,-37.68267 74.15466,-41.44934 94.70266,-4 11.98134,21.83733 7.552,50.75333 7.00534,74.66667 -0.444,19.472 0.72666,39.14 0.72666,58.66666 M 58.103094,496.81445 c 16.95027,13.02933 37.5836,25.11066 57.333326,33.33333 l -4,10.66667 c -16.182526,-6.73733 -31.873326,-16.03467 -46.666656,-25.404 -8.1772,-5.18 -16.528,-10.304 -6.66667,-18.596 m 568.000016,0 c 7.85067,9.97733 -0.7,14.05866 -9.33334,19.43333 -14.44933,8.99467 -29.60266,18.01734 -45.33333,24.56667 l -4,-10.66667 58.66667,-33.33333 m -289.33334,23.25333 c -54.18666,8.20133 -44.82533,92.53334 9.33334,84.16134 54.00932,-8.34934 44.78799,-92.35334 -9.33334,-84.16134 m -138.66667,42.08 -1.33333,10.66667 c -23.12,-1.888 -45.01867,-15.29733 -66.66668,-22.66667 l 4,-10.66666 64.00001,22.66666 m 350.66667,-22.66666 4,10.66666 c -21.60267,7.35334 -43.612,20.784 -66.66667,22.66667 l -1.33333,-10.66667 64,-22.66666 m -212,1.85333 c 26.77466,-5.78933 35.832,35.704 9.33334,41.62133 -26.952,6.02 -36.48267,-35.74933 -9.33334,-41.62133 m -120,38.14667 c 0.28,-3.07467 0.33867,-7.336 3.352,-9.17734 3.09333,-1.88933 8.1,-0.0133 11.31467,0.71067 8.68,1.95733 27.03467,1.81733 33.86267,7.36667 11.84933,9.63066 -11.55867,8.48 -15.196,7.87333 -4.46267,-0.744 -8.89867,-1.60667 -13.33334,-2.508 -6.68267,-1.35733 -13.304,-2.96667 -20,-4.26533 m 249.33333,0 -50.66667,9.33333 2.13734,-10.43333 33.86267,-7.36667 11.248,-0.71067 3.41866,9.17734 m 1.34,47.304 c 12.68667,-2.72934 16.484,17.37067 3.98667,20.05867 -12.68667,2.72933 -16.484,-17.37067 -3.98667,-20.05867 m -72.00667,20.696 v 10.66667 H 287.43644 v -10.66667 z"
       id="path933" />
  </g>
</svg>
